<?xml version="1.0" standalone="no"?><!DOCTYPE svg PUBLIC "-//W3C//DTD SVG 1.1//EN" "http://www.w3.org/Graphics/SVG/1.1/DTD/svg11.dtd"><svg t="1674465938783" class="icon" viewBox="0 0 1024 1024" version="1.1" xmlns="http://www.w3.org/2000/svg" p-id="26986" xmlns:xlink="http://www.w3.org/1999/xlink" width="200" height="200"><path d="M253.44 378.666667a21.333333 21.333333 0 0 1 21.333333 21.333333v1.066667l-27.946666 514.986666a23.893333 23.893333 0 1 1-47.573334-2.56l29.013334-513.706666a21.333333 21.333333 0 0 1 23.466666-21.333334z" fill="#898989" p-id="26987"></path><path d="M288.64 21.333333C189.866667 21.333333 109.866667 110.72 109.866667 222.293333c0 102.613333 68.053333 186.88 156.373333 199.253334v-42.666667a21.333333 21.333333 0 0 1 0-2.133333c-64-12.373333-111.786667-76.373333-111.786667-154.24 0-86.4 60.16-156.373333 133.973334-156.373334s133.973333 69.973333 133.973333 156.373334c0 77.653333-48.426667 141.866667-111.786667 154.24a21.333333 21.333333 0 0 1 0 2.133333v42.666667c88.32-12.373333 156.373333-96.64 156.373334-199.253334C467.413333 110.72 387.413333 21.333333 288.64 21.333333z" fill="#898989" p-id="26988"></path><path d="M330.88 378.666667a21.333333 21.333333 0 0 0-19.84 21.333333l25.6 513.706667a21.333333 21.333333 0 1 0 41.386667-1.28l-25.6-513.706667a21.333333 21.333333 0 0 0-21.546667-20.053333z" fill="#898989" p-id="26989"></path><path d="M329.173333 835.84a21.333333 21.333333 0 0 1 4.053334 12.16v44.586667a21.333333 21.333333 0 0 1-2.133334 9.386666 44.586667 44.586667 0 1 1-85.333333 0 21.333333 21.333333 0 0 1-2.133333-9.386666v-44.8a21.333333 21.333333 0 0 1 4.053333-12.16 89.386667 89.386667 0 1 0 81.066667 0z m393.386667-457.173333a21.333333 21.333333 0 0 1 21.333333 21.333333v1.066667l-27.946666 514.986666a23.893333 23.893333 0 0 1-47.573334-2.56l29.013334-513.706666a21.333333 21.333333 0 0 1 23.466666-21.333334z m77.226667 0a21.333333 21.333333 0 0 0-19.84 21.333333l25.6 513.706667a21.333333 21.333333 0 1 0 41.386666-1.28l-25.6-512.64a21.333333 21.333333 0 0 0-21.333333-21.12z" fill="#898989" p-id="26990"></path><path d="M798.293333 835.84a21.333333 21.333333 0 0 1 4.053334 12.16v44.586667a21.333333 21.333333 0 0 1-2.133334 9.386666 44.586667 44.586667 0 1 1-87.04 13.013334 44.586667 44.586667 0 0 1 2.133334-13.013334 21.333333 21.333333 0 0 1-2.133334-9.386666v-44.8a21.333333 21.333333 0 0 1 4.053334-12.16 89.386667 89.386667 0 1 0 81.066666 0zM632.96 65.92a21.333333 21.333333 0 0 1 21.333333 21.333333l-9.173333 223.36a21.333333 21.333333 0 0 1-44.586667 0l7.893334-223.36a21.333333 21.333333 0 0 1 21.333333-21.333333z m80.213333 0a21.333333 21.333333 0 0 1 21.333334 21.333333v224.426667a21.333333 21.333333 0 1 1-44.586667 0V88.32a21.333333 21.333333 0 0 1 21.333333-21.333333z m174.72 0a21.333333 21.333333 0 0 0-18.346666 21.333333l6.613333 223.36a21.333333 21.333333 0 0 0 18.773333 21.333334 21.333333 21.333333 0 0 0 18.346667-21.333334l-5.973333-222.293333a21.333333 21.333333 0 0 0-18.773334-21.333333z m-106.666666 245.76a21.333333 21.333333 0 1 0 44.586666 0V155.306667h-45.653333z m43.52-223.36a21.333333 21.333333 0 1 0-44.586667 0v21.333333h44.586667z" fill="#898989" p-id="26991"></path><path d="M735.36 378.666667a21.333333 21.333333 0 0 1 0-2.133334 138.453333 138.453333 0 0 1-98.773333-87.04h-35.2V320a178.773333 178.773333 0 0 0 133.973333 102.613333z m143.146667-89.386667a138.453333 138.453333 0 0 1-98.56 87.04 21.333333 21.333333 0 0 1 0 2.133333v42.666667A178.773333 178.773333 0 0 0 914.133333 320v-30.506667z" fill="#898989" p-id="26992"></path></svg>